{
  "accessors": [
    {
      "name": "GeoSphere001_1_0_positions",
      "componentType": 5126,
      "count": 309,
      "min": [
        -40.722900390625,
        4.823200225830078,
        -20.19099998474121
      ],
      "max": [
        36.76089859008789,
        76.78829956054688,
        38.3578987121582
      ],
      "type": "VEC3",
      "bufferView": 0,
      "byteOffset": 0
    },
    {
      "name": "GeoSphere001_1_0_normals",
      "componentType": 5126,
      "count": 309,
      "min": [
        -0.9778740406036377,
        -0.9905447363853455,
        -0.6510729193687439
      ],
      "max": [
        0.9778740406036377,
        0.9836311340332031,
        0.9079824686050415
      ],
      "type": "VEC3",
      "bufferView": 1,
      "byteOffset": 0
    },
    {
      "name": "GeoSphere001_1_0_texcoords",
      "componentType": 5126,
      "count": 309,
      "min": [
        -0.20000000298023224,
        0
      ],
      "max": [
        0.9656000137329102,
        1
      ],
      "type": "VEC2",
      "bufferView": 2,
      "byteOffset": 0
    },
    {
      "name": "GeoSphere001_1_0_indices",
      "componentType": 5123,
      "count": 372,
      "min": [
        0
      ],
      "max": [
        308
      ],
      "type": "SCALAR",
      "bufferView": 3,
      "byteOffset": 0
    },
    {
      "name": "GeoSphere001_1_1_positions",
      "componentType": 5126,
      "count": 279,
      "min": [
        -36.70479965209961,
        8.7701997756958,
        -32.56740188598633
      ],
      "max": [
        34.295799255371094,
        76.78829956054688,
        38.3578987121582
      ],
      "type": "VEC3",
      "bufferView": 0,
      "byteOffset": 3708
    },
    {
      "name": "GeoSphere001_1_1_normals",
      "componentType": 5126,
      "count": 279,
      "min": [
        -0.9673082232475281,
        -0.7836675047874451,
        -0.991473913192749
      ],
      "max": [
        0.9014289975166321,
        0.9836311340332031,
        0.9500972628593445
      ],
      "type": "VEC3",
      "bufferView": 1,
      "byteOffset": 3708
    },
    {
      "name": "GeoSphere001_1_1_texcoords",
      "componentType": 5126,
      "count": 279,
      "min": [
        0,
        0
      ],
      "max": [
        0.9656000137329102,
        0.8824999928474426
      ],
      "type": "VEC2",
      "bufferView": 2,
      "byteOffset": 2472
    },
    {
      "name": "GeoSphere001_1_1_indices",
      "componentType": 5123,
      "count": 291,
      "min": [
        0
      ],
      "max": [
        278
      ],
      "type": "SCALAR",
      "bufferView": 3,
      "byteOffset": 744
    },
    {
      "name": "GeoSphere001_1_2_positions",
      "componentType": 5126,
      "count": 42,
      "min": [
        -26.29949951171875,
        12.595800399780273,
        0.5943999886512756
      ],
      "max": [
        18.84910011291504,
        70.92949676513672,
        36.05699920654297
      ],
      "type": "VEC3",
      "bufferView": 0,
      "byteOffset": 7056
    },
    {
      "name": "GeoSphere001_1_2_normals",
      "componentType": 5126,
      "count": 42,
      "min": [
        -0.6695793271064758,
        -0.6461972594261169,
        0.2290002703666687
      ],
      "max": [
        0.27809882164001465,
        0.7864009141921997,
        0.991473913192749
      ],
      "type": "VEC3",
      "bufferView": 1,
      "byteOffset": 7056
    },
    {
      "name": "GeoSphere001_1_2_texcoords",
      "componentType": 5126,
      "count": 42,
      "min": [
        0.13439999520778656,
        0.11749999970197678
      ],
      "max": [
        0.5,
        0.7651000022888184
      ],
      "type": "VEC2",
      "bufferView": 2,
      "byteOffset": 4704
    },
    {
      "name": "GeoSphere001_1_2_indices",
      "componentType": 5123,
      "count": 42,
      "min": [
        0
      ],
      "max": [
        41
      ],
      "type": "SCALAR",
      "bufferView": 3,
      "byteOffset": 1328
    },
    {
      "name": "GeoSphere001_1_3_positions",
      "componentType": 5126,
      "count": 798,
      "min": [
        -47.22629928588867,
        13.432299613952637,
        -11.37279987335205
      ],
      "max": [
        36.76089859008789,
        76.78829956054688,
        29.53969955444336
      ],
      "type": "VEC3",
      "bufferView": 0,
      "byteOffset": 7560
    },
    {
      "name": "GeoSphere001_1_3_normals",
      "componentType": 5126,
      "count": 798,
      "min": [
        -0.9939864277839661,
        -0.9857754707336426,
        -0.9675709009170532
      ],
      "max": [
        0.9939864277839661,
        0.9924431443214417,
        0.9675709009170532
      ],
      "type": "VEC3",
      "bufferView": 1,
      "byteOffset": 7560
    },
    {
      "name": "GeoSphere001_1_3_texcoords",
      "componentType": 5126,
      "count": 798,
      "min": [
        -0.20000000298023224,
        0
      ],
      "max": [
        0.949999988079071,
        1
      ],
      "type": "VEC2",
      "bufferView": 2,
      "byteOffset": 5040
    },
    {
      "name": "GeoSphere001_1_3_indices",
      "componentType": 5123,
      "count": 810,
      "min": [
        0
      ],
      "max": [
        797
      ],
      "type": "SCALAR",
      "bufferView": 3,
      "byteOffset": 1412
    },
    {
      "name": "GeoSphere001_1_4_positions",
      "componentType": 5126,
      "count": 696,
      "min": [
        10.282999992370605,
        52.962799072265625,
        8.552000045776367
      ],
      "max": [
        35.20560073852539,
        81.79730224609375,
        23.073999404907227
      ],
      "type": "VEC3",
      "bufferView": 0,
      "byteOffset": 17136
    },
    {
      "name": "GeoSphere001_1_4_normals",
      "componentType": 5126,
      "count": 696,
      "min": [
        -0.896513044834137,
        -0.8527103066444397,
        -0.958968460559845
      ],
      "max": [
        0.9952489137649536,
        0.9956602454185486,
        0.9975276589393616
      ],
      "type": "VEC3",
      "bufferView": 1,
      "byteOffset": 17136
    },
    {
      "name": "GeoSphere001_1_4_texcoords",
      "componentType": 5126,
      "count": 696,
      "min": [
        -0.04170000180602074,
        0
      ],
      "max": [
        0.958299994468689,
        1
      ],
      "type": "VEC2",
      "bufferView": 2,
      "byteOffset": 11424
    },
    {
      "name": "GeoSphere001_1_4_indices",
      "componentType": 5123,
      "count": 3144,
      "min": [
        0
      ],
      "max": [
        695
      ],
      "type": "SCALAR",
      "bufferView": 3,
      "byteOffset": 3032
    },
    {
      "name": "GeoSphere001_1_5_positions",
      "componentType": 5126,
      "count": 480,
      "min": [
        10.651300430297852,
        53.051700592041016,
        9.36400032043457
      ],
      "max": [
        29.4601993560791,
        75.72869873046875,
        22.186399459838867
      ],
      "type": "VEC3",
      "bufferView": 0,
      "byteOffset": 25488
    },
    {
      "name": "GeoSphere001_1_5_normals",
      "componentType": 5126,
      "count": 480,
      "min": [
        -0.9807704091072083,
        -0.9471250176429749,
        -0.9975588321685791
      ],
      "max": [
        0.9072304368019104,
        0.8502030968666077,
        0.9620049595832825
      ],
      "type": "VEC3",
      "bufferView": 1,
      "byteOffset": 25488
    },
    {
      "name": "GeoSphere001_1_5_texcoords",
      "componentType": 5126,
      "count": 480,
      "min": [
        0,
        0
      ],
      "max": [
        1,
        1
      ],
      "type": "VEC2",
      "bufferView": 2,
      "byteOffset": 16992
    },
    {
      "name": "GeoSphere001_1_5_indices",
      "componentType": 5123,
      "count": 840,
      "min": [
        0
      ],
      "max": [
        479
      ],
      "type": "SCALAR",
      "bufferView": 3,
      "byteOffset": 9320
    },
    {
      "name": "GeoSphere001_1_6_positions",
      "componentType": 5126,
      "count": 204,
      "min": [
        10.282999992370605,
        52.962799072265625,
        8.552000045776367
      ],
      "max": [
        29.848400115966797,
        76.03679656982422,
        23.073999404907227
      ],
      "type": "VEC3",
      "bufferView": 0,
      "byteOffset": 31248
    },
    {
      "name": "GeoSphere001_1_6_normals",
      "componentType": 5126,
      "count": 204,
      "min": [
        -0.9005281329154968,
        -0.9389787912368774,
        -0.14970466494560242
      ],
      "max": [
        -0.30969300866127014,
        -0.4082127511501312,
        -0.14969198405742645
      ],
      "type": "VEC3",
      "bufferView": 1,
      "byteOffset": 31248
    },
    {
      "name": "GeoSphere001_1_6_texcoords",
      "componentType": 5126,
      "count": 204,
      "min": [
        -0.04170000180602074,
        0
      ],
      "max": [
        1,
        1
      ],
      "type": "VEC2",
      "bufferView": 2,
      "byteOffset": 20832
    },
    {
      "name": "GeoSphere001_1_6_indices",
      "componentType": 5123,
      "count": 576,
      "min": [
        0
      ],
      "max": [
        203
      ],
      "type": "SCALAR",
      "bufferView": 3,
      "byteOffset": 11000
    }
  ],
  "asset": {
    "generator": "obj2gltf",
    "version": "2.0"
  },
  "buffers": [
    {
      "uri": "planet_data.bin",
      "byteLength": 102008
    }
  ],
  "bufferViews": [
    {
      "name": "bufferView_0",
      "buffer": 0,
      "byteLength": 33696,
      "byteOffset": 0,
      "byteStride": 12,
      "target": 34962
    },
    {
      "name": "bufferView_1",
      "buffer": 0,
      "byteLength": 33696,
      "byteOffset": 33696,
      "byteStride": 12,
      "target": 34962
    },
    {
      "name": "bufferView_2",
      "buffer": 0,
      "byteLength": 22464,
      "byteOffset": 67392,
      "byteStride": 8,
      "target": 34962
    },
    {
      "name": "bufferView_3",
      "buffer": 0,
      "byteLength": 12152,
      "byteOffset": 89856,
      "target": 34963
    }
  ],
  "materials": [
    {
      "name": "01___Default",
      "pbrMetallicRoughness": {
        "baseColorFactor": [
          0.3137,
          0.1176,
          0.0235,
          1
        ],
        "metallicFactor": 0,
        "roughnessFactor": 0.99
      },
      "emissiveFactor": [
        0,
        0,
        0
      ],
      "alphaMode": "OPAQUE",
      "doubleSided": false
    },
    {
      "name": "03___Default",
      "pbrMetallicRoughness": {
        "baseColorFactor": [
          0.1529,
          0.298,
          0.0549,
          1
        ],
        "metallicFactor": 0,
        "roughnessFactor": 0.99
      },
      "emissiveFactor": [
        0,
        0,
        0
      ],
      "alphaMode": "OPAQUE",
      "doubleSided": false
    },
    {
      "name": "02___Default",
      "pbrMetallicRoughness": {
        "baseColorFactor": [
          0.0275,
          0.2667,
          0.451,
          1
        ],
        "metallicFactor": 0,
        "roughnessFactor": 0.99
      },
      "emissiveFactor": [
        0,
        0,
        0
      ],
      "alphaMode": "OPAQUE",
      "doubleSided": false
    },
    {
      "name": "07___Default",
      "pbrMetallicRoughness": {
        "baseColorFactor": [
          1,
          1,
          1,
          1
        ],
        "metallicFactor": 0,
        "roughnessFactor": 0.99
      },
      "emissiveFactor": [
        0,
        0,
        0
      ],
      "alphaMode": "OPAQUE",
      "doubleSided": false
    },
    {
      "name": "04___Default",
      "pbrMetallicRoughness": {
        "baseColorFactor": [
          0.0196,
          0.2431,
          0.0353,
          1
        ],
        "metallicFactor": 0,
        "roughnessFactor": 0.99
      },
      "emissiveFactor": [
        0,
        0,
        0
      ],
      "alphaMode": "OPAQUE",
      "doubleSided": false
    },
    {
      "name": "08___Default",
      "pbrMetallicRoughness": {
        "baseColorFactor": [
          0.0471,
          0.0196,
          0.0118,
          1
        ],
        "metallicFactor": 0,
        "roughnessFactor": 0.99
      },
      "emissiveFactor": [
        0,
        0,
        0
      ],
      "alphaMode": "OPAQUE",
      "doubleSided": false
    },
    {
      "name": "Material__204",
      "pbrMetallicRoughness": {
        "baseColorFactor": [
          0.588,
          0.588,
          0.588,
          1
        ],
        "metallicFactor": 0,
        "roughnessFactor": 0.99
      },
      "emissiveFactor": [
        0,
        0,
        0
      ],
      "alphaMode": "OPAQUE",
      "doubleSided": false
    }
  ],
  "meshes": [
    {
      "name": "GeoSphere001_1",
      "primitives": [
        {
          "attributes": {
            "POSITION": 0,
            "NORMAL": 1,
            "TEXCOORD_0": 2
          },
          "indices": 3,
          "material": 0,
          "mode": 4
        },
        {
          "attributes": {
            "POSITION": 4,
            "NORMAL": 5,
            "TEXCOORD_0": 6
          },
          "indices": 7,
          "material": 1,
          "mode": 4
        },
        {
          "attributes": {
            "POSITION": 8,
            "NORMAL": 9,
            "TEXCOORD_0": 10
          },
          "indices": 11,
          "material": 2,
          "mode": 4
        },
        {
          "attributes": {
            "POSITION": 12,
            "NORMAL": 13,
            "TEXCOORD_0": 14
          },
          "indices": 15,
          "material": 3,
          "mode": 4
        },
        {
          "attributes": {
            "POSITION": 16,
            "NORMAL": 17,
            "TEXCOORD_0": 18
          },
          "indices": 19,
          "material": 4,
          "mode": 4
        },
        {
          "attributes": {
            "POSITION": 20,
            "NORMAL": 21,
            "TEXCOORD_0": 22
          },
          "indices": 23,
          "material": 5,
          "mode": 4
        },
        {
          "attributes": {
            "POSITION": 24,
            "NORMAL": 25,
            "TEXCOORD_0": 26
          },
          "indices": 27,
          "material": 6,
          "mode": 4
        }
      ]
    }
  ],
  "nodes": [
    {
      "name": "GeoSphere001",
      "mesh": 0
    }
  ],
  "scene": 0,
  "scenes": [
    {
      "nodes": [
        0
      ]
    }
  ]
}